<svg width="64" height="48" viewBox="0 0 64 48" fill="none" xmlns="http://www.w3.org/2000/svg">
<path fill-rule="evenodd" clip-rule="evenodd" d="M60 16H4V44H60V16ZM0 12V48H64V12H0Z" fill="#333333"/>
<path d="M36 8L32 4L28 8H24L32 0L40 8H36Z" fill="#333333"/>
<path d="M8 40H13L33 20H28L8 40Z" fill="#333333"/>
<path d="M8 33.5V28.5L16.5 20H21.5L8 33.5Z" fill="#333333"/>
<path d="M56 20H51L31 40H36L56 20Z" fill="#333333"/>
<path d="M56 26.5V31.5L47.5 40H42.5L56 26.5Z" fill="#333333"/>
<path d="M24.5 40L44.5 20H39.5L19.5 40H24.5Z" fill="#333333"/>
</svg>
