<svg width="64" height="64" viewBox="0 0 64 64" fill="none" xmlns="http://www.w3.org/2000/svg">
<path d="M35.998 0H57.998V4H42.8248L64.0013 25.1765L61.1729 28.0049L39.998 6.83008V22H35.998V0Z" fill="#ffffff"/>
<path d="M11.998 12H27.998V16H15.998V26L13.998 28L11.998 26V12Z" fill="#ffffff"/>
<path d="M35.998 52H51.998V38L49.998 36L47.998 38V48H35.998V52Z" fill="#ffffff"/>
<path d="M7.99805 48V44H19.998V48H7.99805Z" fill="#ffffff"/>
<path d="M19.998 56V52H7.99805V56H19.998Z" fill="#ffffff"/>
<path fill-rule="evenodd" clip-rule="evenodd" d="M-0.00195312 64V36H27.998V64H-0.00195312ZM3.99805 40V60H23.998V40H3.99805Z" fill="#ffffff"/>
</svg>
