<svg width="34" height="34" viewBox="0 0 34 34" fill="none" xmlns="http://www.w3.org/2000/svg">
<path d="M30 8V10H20V8H30Z" fill="#333333"/>
<path d="M29.3136 22.171L27.8994 20.7568L20.8283 27.8279L22.2426 29.2421L29.3136 22.171Z" fill="#333333"/>
<path d="M24 22.5C24 23.3284 23.3284 24 22.5 24C21.6716 24 21 23.3284 21 22.5C21 21.6716 21.6716 21 22.5 21C23.3284 21 24 21.6716 24 22.5Z" fill="#333333"/>
<path d="M27.5 29C28.3284 29 29 28.3284 29 27.5C29 26.6716 28.3284 26 27.5 26C26.6716 26 26 26.6716 26 27.5C26 28.3284 26.6716 29 27.5 29Z" fill="#333333"/>
<path d="M10 4H8V8L4 8V10H8V14H10V10H14V8H10V4Z" fill="#333333"/>
<path d="M11.8284 20.7571L13.2426 22.1714L10.4142 24.9998L13.2426 27.8282L11.8284 29.2424L9 26.414L6.17157 29.2424L4.75736 27.8282L7.58579 24.9998L4.75736 22.1714L6.17157 20.7571L9 23.5856L11.8284 20.7571Z" fill="#333333"/>
<path fill-rule="evenodd" clip-rule="evenodd" d="M34 0H0V34H34V0ZM32 2H18V16L32 16V2ZM32 18H18V32H32V18ZM16 16V2H2V16L16 16ZM2 18H16V32H2V18Z" fill="#333333"/>
</svg>
