<svg width="16" height="13" viewBox="0 0 16 13" fill="none" xmlns="http://www.w3.org/2000/svg">
<path fill-rule="evenodd" clip-rule="evenodd" d="M8.35294 0.550002C8.08749 0.821251 8.08749 1.25949 8.35476 1.5289L11.3884 4.59474L11.4584 4.65668C11.7263 4.86304 12.1087 4.84154 12.352 4.5929C12.4848 4.45727 12.5511 4.28106 12.5511 4.10484C12.5511 3.92677 12.4848 3.74963 12.3502 3.61401L9.31749 0.548157L9.24743 0.486437C8.9794 0.280778 8.59628 0.302203 8.35294 0.550002ZM0.613909 5.90997C0.277847 5.9527 0.0175781 6.24396 0.0175781 6.59654C0.0175781 6.9785 0.323033 7.2885 0.699396 7.2885L12.6849 7.2885L8.35485 11.6645L8.2936 11.7351C8.08942 12.0057 8.1097 12.3947 8.35303 12.6434C8.61849 12.9137 9.05031 12.9146 9.31667 12.6452L14.8167 7.08645L14.8773 7.01684C14.9696 6.89511 15.0176 6.74647 15.0176 6.59654C15.0176 6.50705 15.0003 6.41755 14.9658 6.33267C14.8603 6.07342 14.6121 5.90458 14.3358 5.90458L0.699396 5.90458L0.613909 5.90997Z" fill="#333333"/>
</svg>
