<svg width="15" height="16" viewBox="0 0 15 16" fill="none" xmlns="http://www.w3.org/2000/svg">
<path fill-rule="evenodd" clip-rule="evenodd" d="M14.3322 3.99836C14.0464 3.64707 13.631 3.44502 13.1939 3.44502H5.45772C5.15964 3.44502 4.91773 3.70217 4.91773 4.01903C4.91773 4.33588 5.15964 4.59304 5.45772 4.59304H13.1939C13.3631 4.59304 13.4682 4.691 13.5158 4.74917C13.5633 4.8081 13.6396 4.93285 13.6151 5.11041L12.9318 10.1303C12.8778 10.5237 12.5553 10.8207 12.1809 10.8207H4.32518C3.92703 10.8207 3.60232 10.503 3.5692 10.0821L2.87586 1.30204C2.8557 1.04183 2.67211 0.828294 2.43019 0.783903L0.93191 0.507613C0.634558 0.4571 0.358084 0.662978 0.307686 0.976005C0.257287 1.28827 0.453842 1.58522 0.747595 1.63956L1.83477 1.83932L2.49283 10.1778C2.57347 11.1987 3.36113 11.9687 4.32518 11.9687H12.1809C13.0888 11.9687 13.8707 11.2493 14.0003 10.2949L14.6843 5.27496C14.7469 4.81422 14.618 4.34966 14.3322 3.99836ZM3.11353 14.3413C3.11353 13.7022 3.60312 13.1818 4.2043 13.1818C4.80548 13.1818 5.29435 13.7022 5.29435 14.3413C5.29435 14.9803 4.80548 15.5 4.2043 15.5C3.60312 15.5 3.11353 14.9803 3.11353 14.3413ZM11.2155 14.3413C11.2155 13.7022 11.7044 13.1818 12.3055 13.1818C12.9067 13.1818 13.3963 13.7022 13.3963 14.3413C13.3963 14.9803 12.9067 15.5 12.3055 15.5C11.7044 15.5 11.2155 14.9803 11.2155 14.3413ZM11.5669 6.84821C11.5669 7.16506 11.325 7.42222 11.0269 7.42222H9.03041C8.73162 7.42222 8.49043 7.16506 8.49043 6.84821C8.49043 6.53136 8.73162 6.2742 9.03041 6.2742H11.0269C11.325 6.2742 11.5669 6.53136 11.5669 6.84821Z" fill="white"/>
</svg>
