<svg width="15" height="14" viewBox="0 0 15 14" fill="none" xmlns="http://www.w3.org/2000/svg">
<path fill-rule="evenodd" clip-rule="evenodd" d="M7.5 14C11.366 14 14.5 10.866 14.5 7C14.5 3.13401 11.366 0 7.5 0C3.63401 0 0.5 3.13401 0.5 7C0.5 10.866 3.63401 14 7.5 14ZM12.3536 4.85355C12.5488 4.65829 12.5488 4.34171 12.3536 4.14645C12.1583 3.95118 11.8417 3.95118 11.6464 4.14645L7.5 8.29289L5.35355 6.14645C5.15829 5.95118 4.84171 5.95118 4.64645 6.14645C4.45118 6.34171 4.45118 6.65829 4.64645 6.85355L7.14645 9.35355C7.34171 9.54882 7.65829 9.54882 7.85355 9.35355L12.3536 4.85355Z" fill="#333333"/>
</svg>
