<svg width="24" height="28" viewBox="0 0 24 28" fill="none" xmlns="http://www.w3.org/2000/svg">
<path fill-rule="evenodd" clip-rule="evenodd" d="M17.3354 0.203323C17.0699 0.474571 17.0699 0.912813 17.3372 1.18222L20.3708 4.24806L20.4409 4.31C20.7088 4.51636 21.0911 4.49486 21.3345 4.24622C21.4672 4.1106 21.5335 3.93438 21.5335 3.75816C21.5335 3.58009 21.4672 3.40295 21.3326 3.26733L18.2999 0.201477L18.2299 0.139758C17.9618 -0.0659015 17.5787 -0.0444764 17.3354 0.203323ZM0.596331 5.56329C0.260269 5.60602 0 5.89728 0 6.24986C0 6.63182 0.305454 6.94182 0.681818 6.94182H21.6673L17.3373 11.3178L17.276 11.3885C17.0718 11.6591 17.0921 12.048 17.3355 12.2967C17.6009 12.567 18.0327 12.5679 18.2991 12.2985L23.7991 6.73977L23.8597 6.67016C23.952 6.54843 24 6.39979 24 6.24986C24 6.16037 23.9827 6.07087 23.9482 5.98599C23.8427 5.72674 23.5945 5.5579 23.3182 5.5579H0.681818L0.596331 5.56329Z" fill="white"/>
<path fill-rule="evenodd" clip-rule="evenodd" d="M6.66464 27.7967C6.93009 27.5254 6.93009 27.0872 6.66282 26.8178L3.62918 23.7519L3.55914 23.69C3.29124 23.4836 2.90888 23.5051 2.66555 23.7538C2.53282 23.8894 2.46645 24.0656 2.46645 24.2418C2.46645 24.4199 2.53282 24.597 2.66736 24.7327L5.70009 27.7985L5.77014 27.8602C6.03818 28.0659 6.4213 28.0445 6.66464 27.7967ZM23.4037 22.4367C23.7397 22.394 24 22.1027 24 21.7501C24 21.3682 23.6945 21.0582 23.3182 21.0582H2.33273L6.66273 16.6822L6.72398 16.6115C6.92816 16.3409 6.90788 15.952 6.66455 15.7033C6.39909 15.433 5.96727 15.4321 5.70091 15.7015L0.20091 21.2602L0.140257 21.3298C0.0479803 21.4516 1.31069e-08 21.6002 0 21.7501C-7.82375e-09 21.8396 0.017273 21.9291 0.0518179 22.014C0.157272 22.2733 0.405455 22.4421 0.681819 22.4421L23.3182 22.4421L23.4037 22.4367Z" fill="white"/>
</svg>
