<svg width="20" height="21" viewBox="0 0 20 21" fill="none" xmlns="http://www.w3.org/2000/svg">
<path d="M7 6L1 7.82609V20L7 18.1739M7 6V18.1739M7 6L9.15454 6.65573M7 18.1739L13 20M13 20L19 18.1739V6L16.5 7M13 20V11M13 11L15.8284 8.07107C17.3905 6.45346 17.3905 3.83081 15.8284 2.2132C14.2663 0.595599 11.7337 0.595599 10.1716 2.2132C8.60948 3.83081 8.60948 6.45346 10.1716 8.07107L13 11ZM15 5C15 6.10457 14.1046 7 13 7C11.8954 7 11 6.10457 11 5C11 3.89543 11.8954 3 13 3C14.1046 3 15 3.89543 15 5Z" stroke="black" stroke-linejoin="round"/>
</svg>
