<svg width="186" height="30" viewBox="0 0 186 30" fill="none" xmlns="http://www.w3.org/2000/svg">
<path d="M6.59025 22.4762H17.7421L19.7767 29.0321H0V0H6.59025V22.4762Z" fill="#333333"/>
<path d="M26.4796 18.7055C26.4796 21.3183 27.7431 23.3492 31.8895 23.3492C36.0358 23.3492 37.3408 21.3183 37.3408 18.7055C37.3408 16.0926 36.0358 13.9786 31.8895 13.9786C27.7431 13.9786 26.4796 16.0926 26.4796 18.7055ZM19.5572 18.7055C19.5572 11.6983 24.3205 7.67221 31.931 7.67221C39.5415 7.67221 44.2632 12.1496 44.2632 18.7055C44.2632 25.2613 39.5 29.6972 31.931 29.6972C24.362 29.6972 19.5572 25.7185 19.5572 18.7055Z" fill="#333333"/>
<path d="M48.7477 6.59739C48.8307 2.61877 51.9627 0.00593824 55.3795 0.00593824H60.7537V5.02375H57.8234C55.9133 5.02375 55.1362 5.6057 55.1362 6.59739V8.29572H60.2257V13.7708H55.1362V29.1152H48.7477V13.7708H44.72V8.29572H48.7477V6.59739Z" fill="#333333"/>
<path d="M65.5525 20.7779V13.7708H62.9069V8.25416H65.5525V5.10095H71.9411V8.25416H77.2323V13.7708H71.9411V20.7779C71.9411 22.4762 72.7122 22.9751 74.6282 22.9751H79.2669V29.0321H70.9683C66.4542 29.0321 65.5585 24.2637 65.5585 20.7779H65.5525Z" fill="#333333"/>
<path d="M88.3544 24.0974H91.694C97.0683 24.0974 99.3046 24.3052 99.3046 20.7779C99.3046 17.2506 96.2912 17.1675 90.5551 17.1675C90.1102 17.1675 89.6179 17.1675 88.6451 17.1259H88.3604V24.0914L88.3544 24.0974ZM88.3544 10.0772H91.8957C95.4785 10.0772 97.7979 9.74466 97.7979 7.4228C97.7979 5.10095 95.7218 5.05938 91.8957 5.05938H88.3544V10.0772ZM98.8122 14.1449C102.312 15.2257 106.18 16.633 106.18 20.9442C106.18 27.9097 102.11 29.1152 94.9506 29.1152C93.8117 29.1152 90.9229 29.0736 88.3604 29.0736V29.0321H81.7701V0H94.1024C100.165 0 104.685 0.748218 104.685 6.96556C104.685 9.99406 102.526 11.5261 98.7826 12.8563C97.5606 13.272 95.8107 12.981 94.5117 12.981V14.1033C95.3243 14.1033 96.3446 13.9786 97.3174 13.9786C97.8453 13.9786 98.3733 14.0202 98.8241 14.1449H98.8122Z" fill="#333333"/>
<path d="M117.1 9.41805C119.502 7.96912 122.106 8.29572 125.689 8.29572V13.7292C120.357 13.7292 114.579 15.7601 114.579 21.4846V29.0321H108.19V8.29572H114.579C114.537 10.285 113.523 12.6069 112.669 14.3943L113.689 14.8931C114.543 13.0701 115.439 10.4988 117.106 9.41805H117.1Z" fill="#333333"/>
<path d="M127.973 29.0321V8.29572H134.32V29.0321H127.973ZM127.932 6.43112V1.03919H134.32V6.43112H127.932Z" fill="#333333"/>
<path d="M136.633 18.5808C136.633 11.4074 141.07 7.67221 147.862 7.67221C155.022 7.67221 159.174 11.8171 159.542 16.7934H153.397C153.48 17.2506 151.807 13.7648 147.661 13.8064C145.015 13.8064 142.981 15.3385 142.981 18.4917C142.939 21.6033 144.813 23.5095 147.619 23.5095C151.605 23.5511 153.64 20.0653 153.521 20.481H159.667C158.937 25.8314 154.702 29.6853 147.904 29.6853C141.106 29.6853 136.633 25.6651 136.633 18.5748V18.5808Z" fill="#333333"/>
<path d="M170.664 12.5653L175.345 8.33729H182.955L174.407 16.342L185.067 29.0736H177.338L170.178 19.9525L168.185 21.5677L168.309 29.0321H161.879V8.29572H168.309V11.4905C168.309 13.4382 167.289 15.6354 166.518 17.3812L167.538 17.88C168.309 16.0986 169.247 13.8599 170.67 12.5713L170.664 12.5653Z" fill="#333333"/>
</svg>
