<svg width="216" height="30" viewBox="0 0 216 30" fill="none" xmlns="http://www.w3.org/2000/svg">
<path d="M60.1154 29.4909H54.8529L48.8036 20.8345L46.8503 22.8642V29.4909H42.8245V9.68174H46.8503V17.8359L54.4103 9.68174H59.7008L51.6702 17.8359L60.1154 29.4909Z" fill="#333333"/>
<path d="M62.2021 9.68174H65.9891V29.4909H62.2021V9.68174Z" fill="#333333"/>
<path d="M73.5912 14.8444V29.4909H69.7479V14.8444H73.5912ZM73.5912 9.56154V13.0976H69.7479V9.56154H73.5912Z" fill="#333333"/>
<path d="M84.095 17.6803C82.8092 17.6803 81.931 18.2319 81.4532 19.3352C81.2073 19.9151 81.0808 20.6577 81.0808 21.5629V29.4908H77.3079V14.8727H80.9614V17.0085C81.4462 16.2588 81.9099 15.7142 82.3455 15.3819C83.1254 14.7878 84.1161 14.4978 85.3105 14.4978C86.807 14.4978 88.0295 14.8939 88.978 15.693C89.9336 16.478 90.4113 17.7935 90.4113 19.6322V29.4979H86.533V20.587C86.533 19.8161 86.4276 19.222 86.2309 18.8119C85.8445 18.0551 85.1418 17.6803 84.095 17.6803Z" fill="#333333"/>
<path d="M107.203 29.4909H102.629L99.1586 23.232L97.5919 24.8869V29.4979H93.8681V9.75249H97.5919V20.4244L102.313 14.9152H107.007L101.941 20.5163L107.203 29.4909Z" fill="#333333"/>
<path d="M121.466 25.1912C121.368 26.061 120.925 26.9451 120.124 27.8362C118.881 29.2577 117.145 29.972 114.911 29.972C113.07 29.972 111.44 29.3708 110.035 28.1686C108.623 26.9663 107.92 25.0144 107.92 22.3128C107.92 19.781 108.552 17.8361 109.824 16.4783C111.103 15.1275 112.754 14.4486 114.784 14.4486C115.986 14.4486 117.075 14.6749 118.037 15.1346C119.007 15.5943 119.801 16.3156 120.433 17.2986C121.002 18.1685 121.368 19.1728 121.536 20.3255C121.635 20.9974 121.677 21.9663 121.656 23.2251H111.742C111.791 24.6961 112.255 25.7216 113.112 26.3156C113.632 26.6834 114.264 26.8673 115.002 26.8673C115.782 26.8673 116.414 26.641 116.906 26.1954C117.173 25.955 117.405 25.6155 117.609 25.1841H121.466V25.1912ZM117.721 20.7004C117.658 19.689 117.356 18.9252 116.801 18.4019C116.26 17.8715 115.585 17.6098 114.777 17.6098C113.899 17.6098 113.218 17.8856 112.733 18.4443C112.255 19.003 111.953 19.7527 111.826 20.7004H117.721Z" fill="#333333"/>
<path d="M131.506 18.3734C129.982 18.3734 128.956 18.8755 128.436 19.8797C128.141 20.4455 128 21.3154 128 22.4894V29.4908H124.185V14.8444H127.804V17.3974C128.387 16.4215 128.9 15.7567 129.335 15.396C130.045 14.7949 130.965 14.4978 132.096 14.4978C132.167 14.4978 132.223 14.5049 132.272 14.512C132.328 14.512 132.434 14.5191 132.602 14.5261V18.4512C132.363 18.4229 132.153 18.4087 131.963 18.3946C131.766 18.3804 131.619 18.3734 131.506 18.3734Z" fill="#333333"/>
<path d="M149.816 26.6266C150.786 26.6266 151.565 26.5205 152.17 26.3013C153.315 25.8911 153.884 25.1202 153.884 24.0028C153.884 23.3522 153.603 22.843 153.034 22.4823C152.465 22.1358 151.579 21.8246 150.364 21.5558L148.291 21.082C146.254 20.6153 144.842 20.1131 144.062 19.5615C142.741 18.6492 142.08 17.2206 142.08 15.2758C142.08 13.5007 142.72 12.0297 143.991 10.8557C145.27 9.6817 147.139 9.09471 149.612 9.09471C151.678 9.09471 153.434 9.65341 154.889 10.7637C156.35 11.867 157.116 13.4724 157.186 15.5728H153.252C153.181 14.3847 152.668 13.536 151.706 13.0339C151.067 12.7015 150.273 12.5389 149.324 12.5389C148.27 12.5389 147.427 12.751 146.802 13.1824C146.169 13.6138 145.86 14.2149 145.86 14.9858C145.86 15.693 146.169 16.2234 146.788 16.57C147.188 16.8034 148.038 17.0792 149.338 17.3904L152.718 18.2107C154.2 18.5714 155.31 19.0452 156.069 19.6464C157.242 20.5799 157.826 21.9236 157.826 23.6916C157.826 25.5021 157.137 27.0085 155.767 28.2037C154.404 29.3918 152.472 29.9929 149.97 29.9929C147.42 29.9929 145.411 29.4059 143.949 28.232C142.488 27.0509 141.757 25.4314 141.757 23.3663H145.664C145.79 24.2716 146.029 24.9505 146.394 25.396C147.069 26.2164 148.207 26.6266 149.816 26.6266Z" fill="#333333"/>
<path d="M167.191 26.7612V29.6254L165.4 29.6961C163.608 29.7598 162.385 29.4486 161.732 28.7555C161.303 28.3171 161.093 27.6381 161.093 26.7258V17.7017H159.069V14.9719H161.093V10.8842H164.837V14.9719H167.191V17.7017H164.837V25.4387C164.837 26.0398 164.915 26.4146 165.062 26.5702C165.21 26.7117 165.674 26.7824 166.446 26.7824C166.559 26.7824 166.678 26.7824 166.805 26.7824C166.938 26.7824 167.065 26.7682 167.191 26.7612Z" fill="#333333"/>
<path d="M181.707 16.6973C182.929 18.2461 183.541 20.0778 183.541 22.1923C183.541 24.3423 182.929 26.181 181.707 27.7157C180.484 29.2362 178.629 30 176.135 30C173.648 30 171.786 29.2362 170.564 27.7157C169.341 26.181 168.73 24.3423 168.73 22.1923C168.73 20.0778 169.341 18.2461 170.564 16.6973C171.786 15.1485 173.641 14.3705 176.135 14.3705C178.622 14.3705 180.484 15.1485 181.707 16.6973ZM176.121 17.6096C175.011 17.6096 174.161 18.0056 173.557 18.8048C172.959 19.5898 172.664 20.7213 172.664 22.1923C172.664 23.6633 172.959 24.7949 173.557 25.594C174.161 26.3932 175.011 26.7892 176.121 26.7892C177.231 26.7892 178.081 26.3932 178.672 25.594C179.269 24.7949 179.564 23.6633 179.564 22.1923C179.564 20.7213 179.269 19.5969 178.672 18.8048C178.081 18.0127 177.231 17.6096 176.121 17.6096Z" fill="#333333"/>
<path d="M193.082 17.6803C191.796 17.6803 190.918 18.2319 190.44 19.3352C190.194 19.9151 190.068 20.6577 190.068 21.5629V29.4908H186.295V14.8727H189.948V17.0085C190.433 16.2588 190.897 15.7142 191.332 15.3819C192.112 14.7878 193.103 14.4978 194.297 14.4978C195.794 14.4978 197.016 14.8939 197.965 15.693C198.92 16.478 199.398 17.7935 199.398 19.6322V29.4979H195.52V20.587C195.52 19.8161 195.414 19.222 195.218 18.8119C194.838 18.0551 194.129 17.6803 193.082 17.6803Z" fill="#333333"/>
<path d="M215.305 25.1912C215.207 26.061 214.764 26.9451 213.963 27.8362C212.719 29.2577 210.984 29.972 208.75 29.972C206.909 29.972 205.279 29.3708 203.874 28.1686C202.462 26.9663 201.759 25.0144 201.759 22.3128C201.759 19.781 202.391 17.8361 203.663 16.4783C204.942 15.1275 206.593 14.4486 208.623 14.4486C209.825 14.4486 210.914 14.6749 211.883 15.1346C212.846 15.5943 213.647 16.3156 214.272 17.2986C214.841 18.1685 215.207 19.1728 215.375 20.3255C215.474 20.9974 215.516 21.9663 215.495 23.2251H205.581C205.637 24.6961 206.094 25.7216 206.951 26.3156C207.471 26.6834 208.103 26.8673 208.841 26.8673C209.621 26.8673 210.253 26.641 210.738 26.1954C211.005 25.955 211.237 25.6155 211.441 25.1841H215.305V25.1912ZM211.56 20.7004C211.497 19.689 211.195 18.9252 210.64 18.4019C210.099 17.8715 209.424 17.6098 208.616 17.6098C207.738 17.6098 207.057 17.8856 206.572 18.4443C206.094 19.003 205.792 19.7527 205.665 20.7004H211.56Z" fill="#333333"/>
<path d="M0.5 29.4909H11.5167V19.9576L20.9526 29.4909H32.9038L17.7909 14.2221L25.934 6.04669L19.9971 0L5.83974 14.2221L9.9148 18.3593L0.5 18.3522V29.4909Z" fill="#333333"/>
</svg>
