<svg width="260" height="130" viewBox="0 0 260 130" fill="none" xmlns="http://www.w3.org/2000/svg">
<path d="M11.6463 119.939H27.1638L29.9949 129.073H2.47619V88.5986H11.6463V119.939Z" fill="#F1F1F1"/>
<path d="M39.3219 114.673C39.3219 118.317 41.08 121.148 46.8495 121.148C52.6191 121.148 54.4349 118.317 54.4349 114.673C54.4349 111.03 52.6191 108.082 46.8495 108.082C41.08 108.082 39.3219 111.03 39.3219 114.673ZM29.6895 114.673C29.6895 104.903 36.3175 99.2886 46.9073 99.2886C57.4972 99.2886 64.0673 105.532 64.0673 114.673C64.0673 123.815 57.4394 130 46.9073 130C36.3752 130 29.6895 124.452 29.6895 114.673Z" fill="#F1F1F1"/>
<path d="M70.3073 97.7897C70.4229 92.2419 74.781 88.5986 79.5352 88.5986H87.0133V95.5954H82.9359C80.2781 95.5954 79.1968 96.4069 79.1968 97.7897V100.158H86.2787V107.792H79.1968V129.188H70.3073V107.792H64.7029V100.158H70.3073V97.7897Z" fill="#F1F1F1"/>
<path d="M93.6908 117.571V107.801H90.0095V100.108H93.6908V95.7114H102.58V100.108H109.943V107.801H102.58V117.571C102.58 119.939 103.653 120.635 106.319 120.635H112.774V129.081H101.227C94.9454 129.081 93.699 122.432 93.699 117.571H93.6908Z" fill="#F1F1F1"/>
<path d="M125.419 122.192H130.066C137.544 122.192 140.656 122.481 140.656 117.563C140.656 112.644 136.463 112.529 128.481 112.529C127.862 112.529 127.177 112.529 125.823 112.471H125.427V122.183L125.419 122.192ZM125.419 102.65H130.347C135.332 102.65 138.559 102.187 138.559 98.949C138.559 95.7114 135.67 95.6534 130.347 95.6534H125.419V102.65ZM139.971 108.314C144.841 109.821 150.222 111.783 150.222 117.795C150.222 127.508 144.56 129.188 134.597 129.188C133.013 129.188 128.993 129.13 125.427 129.13V129.073H116.257V88.5986H133.417C141.853 88.5986 148.142 89.6419 148.142 98.3114C148.142 102.534 145.138 104.671 139.93 106.525C138.229 107.105 135.794 106.699 133.987 106.699V108.264C135.117 108.264 136.537 108.09 137.891 108.09C138.625 108.09 139.36 108.148 139.987 108.322L139.971 108.314Z" fill="#F1F1F1"/>
<path d="M165.418 101.723C168.761 99.7025 172.384 100.158 177.37 100.158V107.734C169.949 107.734 161.91 110.566 161.91 118.548V129.073H153.02V100.158H161.91C161.852 102.932 160.441 106.169 159.252 108.662L160.672 109.357C161.86 106.815 163.107 103.23 165.426 101.723H165.418Z" fill="#F1F1F1"/>
<path d="M180.547 129.073V100.158H189.379V129.073H180.547ZM180.49 97.558V90.0396H189.379V97.558H180.49Z" fill="#F1F1F1"/>
<path d="M192.598 114.508C192.598 104.505 198.772 99.2969 208.223 99.2969C218.185 99.2969 223.963 105.076 224.475 112.015H215.924C216.039 112.653 213.712 107.792 207.942 107.85C204.261 107.85 201.43 109.987 201.43 114.384C201.372 118.722 203.98 121.38 207.884 121.38C213.431 121.438 216.262 116.578 216.097 117.157H224.648C223.633 124.618 217.74 129.992 208.281 129.992C198.822 129.992 192.598 124.386 192.598 114.499V114.508Z" fill="#F1F1F1"/>
<path d="M239.951 106.12L246.464 100.224H257.053L245.159 111.386L259.992 129.139H249.237L239.274 116.42L236.501 118.672L236.674 129.081H227.727V100.166H236.674V104.621C236.674 107.337 235.255 110.4 234.182 112.835L235.601 113.53C236.674 111.046 237.978 107.925 239.959 106.128L239.951 106.12Z" fill="#F1F1F1"/>
<path d="M11.1676 52.9936L0 33.9904L19.7022 1.2586H40.7829L49.0616 17.2478L59.4781 0.505096H73.6584L78.2971 22.6548L89.0851 0H99.6254L105.651 21.7771L93.2286 52.2401H82.061L73.5264 33.6096L65 52.2401H50.8197L41.6578 37.2611L32.8756 52.9936H11.1676Z" fill="#FE5900"/>
</svg>
