<svg width="33" height="30" viewBox="0 0 33 30" fill="none" xmlns="http://www.w3.org/2000/svg">
<mask id="path-1-inside-1_286_1910" fill="white">
<path fill-rule="evenodd" clip-rule="evenodd" d="M0 29.4909H11.0167V19.9576L20.4526 29.4909H32.4038L17.2909 14.2221L25.434 6.04669L19.4971 0L5.33974 14.2221L9.4148 18.3593L0 18.3522V29.4909Z"/>
</mask>
<path fill-rule="evenodd" clip-rule="evenodd" d="M0 29.4909H11.0167V19.9576L20.4526 29.4909H32.4038L17.2909 14.2221L25.434 6.04669L19.4971 0L5.33974 14.2221L9.4148 18.3593L0 18.3522V29.4909Z" fill="white"/>
<path d="M11.0167 29.4909V30.4909H12.0167V29.4909H11.0167ZM0 29.4909H-1V30.4909H0V29.4909ZM11.0167 19.9576L11.7275 19.2542L10.0167 17.5258V19.9576H11.0167ZM20.4526 29.4909L19.7419 30.1944L20.0354 30.4909H20.4526V29.4909ZM32.4038 29.4909V30.4909H34.8006L33.1145 28.7874L32.4038 29.4909ZM17.2909 14.2221L16.5824 13.5164L15.8817 14.2199L16.5802 14.9256L17.2909 14.2221ZM25.434 6.04669L26.1425 6.7524L26.8404 6.05174L26.1476 5.34609L25.434 6.04669ZM19.4971 0L20.2106 -0.700602L19.502 -1.42236L18.7883 -0.705491L19.4971 0ZM5.33974 14.2221L4.63102 13.5166L3.93244 14.2184L4.6273 14.9238L5.33974 14.2221ZM9.4148 18.3593L9.41405 19.3593L11.8052 19.3611L10.1272 17.6576L9.4148 18.3593ZM0 18.3522L0.000751002 17.3522L-1 17.3515V18.3522H0ZM11.0167 28.4909H0V30.4909H11.0167V28.4909ZM10.0167 19.9576V29.4909H12.0167V19.9576H10.0167ZM21.1633 28.7874L11.7275 19.2542L10.306 20.6611L19.7419 30.1944L21.1633 28.7874ZM32.4038 28.4909H20.4526V30.4909H32.4038V28.4909ZM16.5802 14.9256L31.6931 30.1944L33.1145 28.7874L18.0016 13.5186L16.5802 14.9256ZM24.7255 5.34099L16.5824 13.5164L17.9994 14.9278L26.1425 6.7524L24.7255 5.34099ZM18.7835 0.700602L24.7205 6.7473L26.1476 5.34609L20.2106 -0.700602L18.7835 0.700602ZM6.04846 14.9276L20.2058 0.705491L18.7883 -0.705491L4.63102 13.5166L6.04846 14.9276ZM10.1272 17.6576L6.05218 13.5204L4.6273 14.9238L8.70236 19.0611L10.1272 17.6576ZM-0.000751002 19.3522L9.41405 19.3593L9.41555 17.3593L0.000751002 17.3522L-0.000751002 19.3522ZM1 29.4909V18.3522H-1V29.4909H1Z" fill="#333333" mask="url(#path-1-inside-1_286_1910)"/>
</svg>
