<svg width="20" height="20" viewBox="0 0 20 20" fill="none" xmlns="http://www.w3.org/2000/svg">
<path d="M20 10C20 15.5242 15.5242 20 10 20C8.96774 20 7.97581 19.8427 7.04032 19.5524C7.44758 18.8871 8.05645 17.7984 8.28226 16.9315C8.40322 16.4637 8.90323 14.5524 8.90323 14.5524C9.22984 15.1734 10.1815 15.7016 11.1935 15.7016C14.2097 15.7016 16.3831 12.9274 16.3831 9.47984C16.3831 6.17742 13.6855 3.70565 10.2177 3.70565C5.90323 3.70565 3.60887 6.60081 3.60887 9.75806C3.60887 11.2258 4.39113 13.0524 5.6371 13.6331C5.82661 13.7218 5.92742 13.6815 5.97177 13.5C6.00403 13.3629 6.17339 12.6815 6.25 12.3669C6.27419 12.2661 6.2621 12.1774 6.18145 12.0806C5.77419 11.5766 5.44355 10.6573 5.44355 9.79839C5.44355 7.59274 7.1129 5.45968 9.95968 5.45968C12.4153 5.45968 14.1371 7.13306 14.1371 9.52823C14.1371 12.2339 12.7702 14.1089 10.9919 14.1089C10.0121 14.1089 9.27419 13.2984 9.5121 12.3024C9.79435 11.1129 10.3387 9.83064 10.3387 8.97177C10.3387 8.20564 9.92742 7.56452 9.07258 7.56452C8.06855 7.56452 7.2621 8.60081 7.2621 9.99194C7.2621 10.879 7.56048 11.4758 7.56048 11.4758C7.56048 11.4758 6.57258 15.6613 6.39113 16.4435C6.18952 17.3064 6.27016 18.5242 6.35484 19.3145C2.6371 17.8589 0 14.2379 0 10C0 4.47581 4.47581 0 10 0C15.5242 0 20 4.47581 20 10Z" fill="#333333"/>
</svg>
