<svg width="15" height="16" viewBox="0 0 15 16" fill="none" xmlns="http://www.w3.org/2000/svg">
<path d="M14.4637 14.4549L11.9888 11.9344L11.9308 11.8425C11.823 11.7306 11.6755 11.6676 11.5215 11.6676C11.3676 11.6676 11.2201 11.7306 11.1123 11.8425C9.00897 13.8525 5.76801 13.9618 3.53879 12.0978C1.30957 10.2338 0.783827 6.97503 2.31024 4.48263C3.83665 1.99023 6.94156 1.03764 9.5658 2.2566C12.19 3.47557 13.5193 6.48784 12.672 9.2957C12.611 9.49854 12.6609 9.71913 12.8028 9.87437C12.9448 10.0296 13.1573 10.0959 13.3603 10.0483C13.5633 10.0007 13.726 9.84643 13.787 9.64358C14.7999 6.31148 13.2701 2.72567 10.1874 1.20579C7.10458 -0.314079 3.39395 0.688118 1.45587 3.56406C-0.482219 6.44001 -0.0661249 10.3266 2.43498 12.7096C4.93608 15.0926 8.77159 15.2569 11.4603 13.0962L13.6517 15.3279C13.878 15.5574 14.2439 15.5574 14.4702 15.3279C14.6963 15.0952 14.6963 14.7204 14.4702 14.4877L14.4637 14.4549Z" fill="#333333"/>
</svg>
