<svg width="14" height="10" viewBox="0 0 14 10" fill="none" xmlns="http://www.w3.org/2000/svg">
<path d="M6.82122 1.41294L6.82122 4.46199H0.800661C0.496696 4.46199 0.25 4.70298 0.25 4.99993C0.25 5.29687 0.496696 5.53787 0.800661 5.53787H6.82122V8.58692C6.82122 8.78273 6.92988 8.96347 7.10609 9.05815C7.28157 9.15283 7.49596 9.14637 7.66483 9.04237L13.4923 5.45538C13.6531 5.3564 13.75 5.18498 13.75 4.99993C13.75 4.81488 13.6531 4.64345 13.4923 4.54447L9.86601 2.31309C9.60977 2.15458 9.26909 2.22989 9.10683 2.48093C8.9453 2.73269 9.02239 3.06478 9.2801 3.22329L12.1656 4.99993L7.92254 7.61288L7.92254 1.41294C7.92254 1.116 7.67584 0.875 7.37188 0.875C7.06791 0.875 6.82122 1.116 6.82122 1.41294Z" fill="white"/>
</svg>
